<mxfile host="65bd71144e">
    <diagram id="FzrcUhXxwpoYpf9DW2ax" name="Page-1">
        <mxGraphModel dx="1072" dy="363" grid="1" gridSize="10" guides="1" tooltips="1" connect="1" arrows="1" fold="1" page="1" pageScale="1" pageWidth="850" pageHeight="1100" math="0" shadow="0">
            <root>
                <mxCell id="0"/>
                <mxCell id="1" parent="0"/>
                <mxCell id="2" value="Start" style="ellipse;whiteSpace=wrap;html=1;" vertex="1" parent="1">
                    <mxGeometry x="350" y="30" width="150" height="50" as="geometry"/>
                </mxCell>
                <mxCell id="3" value="เตรียมอุปกรณ์และวัตถุดิบ (ข้าว, หมูกรอบ, พริก, กระเทียม, ใบกระเพรา, เครื่องปรุง)" style="rounded=0;whiteSpace=wrap;html=1;" vertex="1" parent="1">
                    <mxGeometry x="275" y="120" width="300" height="40" as="geometry"/>
                </mxCell>
                <mxCell id="4" value="" style="endArrow=classic;html=1;" edge="1" parent="1" source="2" target="3">
                    <mxGeometry width="50" height="50" relative="1" as="geometry">
                        <mxPoint x="425" y="80" as="sourcePoint"/>
                        <mxPoint x="425" y="110" as="targetPoint"/>
                    </mxGeometry>
                </mxCell>
                <mxCell id="5" value="โขลกพริกและกระเทียมให้พอหยาบ" style="rounded=0;whiteSpace=wrap;html=1;" vertex="1" parent="1">
                    <mxGeometry x="275" y="200" width="300" height="40" as="geometry"/>
                </mxCell>
                <mxCell id="6" value="" style="endArrow=classic;html=1;" edge="1" parent="1" source="3" target="5">
                    <mxGeometry width="50" height="50" relative="1" as="geometry">
                        <mxPoint x="425" y="160" as="sourcePoint"/>
                        <mxPoint x="425" y="190" as="targetPoint"/>
                    </mxGeometry>
                </mxCell>
                <mxCell id="7" value="หั่นหมูกรอบเป็นชิ้นพอดีคำ" style="rounded=0;whiteSpace=wrap;html=1;" vertex="1" parent="1">
                    <mxGeometry x="275" y="280" width="300" height="40" as="geometry"/>
                </mxCell>
                <mxCell id="8" value="" style="endArrow=classic;html=1;" edge="1" parent="1" source="5" target="7">
                    <mxGeometry width="50" height="50" relative="1" as="geometry">
                        <mxPoint x="425" y="240" as="sourcePoint"/>
                        <mxPoint x="425" y="270" as="targetPoint"/>
                    </mxGeometry>
                </mxCell>
                <mxCell id="9" value="ตั้งกระทะและใส่น้ำมันให้ร้อน" style="rounded=0;whiteSpace=wrap;html=1;" vertex="1" parent="1">
                    <mxGeometry x="275" y="360" width="300" height="40" as="geometry"/>
                </mxCell>
                <mxCell id="10" value="" style="endArrow=classic;html=1;" edge="1" parent="1" source="7" target="9">
                    <mxGeometry width="50" height="50" relative="1" as="geometry">
                        <mxPoint x="425" y="320" as="sourcePoint"/>
                        <mxPoint x="425" y="350" as="targetPoint"/>
                    </mxGeometry>
                </mxCell>
                <mxCell id="11" value="ผัดพริกกระเทียมที่โขลกจนหอม" style="rounded=0;whiteSpace=wrap;html=1;" vertex="1" parent="1">
                    <mxGeometry x="275" y="440" width="300" height="40" as="geometry"/>
                </mxCell>
                <mxCell id="12" value="" style="endArrow=classic;html=1;" edge="1" parent="1" source="9" target="11">
                    <mxGeometry width="50" height="50" relative="1" as="geometry">
                        <mxPoint x="425" y="400" as="sourcePoint"/>
                        <mxPoint x="425" y="430" as="targetPoint"/>
                    </mxGeometry>
                </mxCell>
                <mxCell id="13" value="ใส่หมูกรอบลงผัด" style="rounded=0;whiteSpace=wrap;html=1;" vertex="1" parent="1">
                    <mxGeometry x="275" y="520" width="300" height="40" as="geometry"/>
                </mxCell>
                <mxCell id="14" value="" style="endArrow=classic;html=1;" edge="1" parent="1" source="11" target="13">
                    <mxGeometry width="50" height="50" relative="1" as="geometry">
                        <mxPoint x="425" y="480" as="sourcePoint"/>
                        <mxPoint x="425" y="510" as="targetPoint"/>
                    </mxGeometry>
                </mxCell>
                <mxCell id="15" value="ปรุงรสด้วยน้ำปลา, น้ำตาล, ซีอิ๊วดำ (ถ้ามี)" style="rounded=0;whiteSpace=wrap;html=1;" vertex="1" parent="1">
                    <mxGeometry x="275" y="600" width="300" height="40" as="geometry"/>
                </mxCell>
                <mxCell id="16" value="" style="endArrow=classic;html=1;" edge="1" parent="1" source="13" target="15">
                    <mxGeometry width="50" height="50" relative="1" as="geometry">
                        <mxPoint x="425" y="560" as="sourcePoint"/>
                        <mxPoint x="425" y="590" as="targetPoint"/>
                    </mxGeometry>
                </mxCell>
                <mxCell id="17" value="รสชาติได้ที่แล้ว ?" style="rhombus;whiteSpace=wrap;html=1;" vertex="1" parent="1">
                    <mxGeometry x="365" y="680" width="120" height="60" as="geometry"/>
                </mxCell>
                <mxCell id="18" value="" style="endArrow=classic;html=1;" edge="1" parent="1" source="15" target="17">
                    <mxGeometry width="50" height="50" relative="1" as="geometry">
                        <mxPoint x="425" y="640" as="sourcePoint"/>
                        <mxPoint x="425" y="670" as="targetPoint"/>
                    </mxGeometry>
                </mxCell>
                <mxCell id="19" value="ใช่" style="edgeStyle=orthogonalEdgeStyle;html=1;align=left;spacingLeft=8;" edge="1" parent="1" source="17" target="20">
                    <mxGeometry relative="1" as="geometry">
                        <mxPoint x="425" y="740" as="sourcePoint"/>
                    </mxGeometry>
                </mxCell>
                <mxCell id="20" value="ใส่ใบกระเพราแล้วผัดเร็ว ๆ" style="rounded=0;whiteSpace=wrap;html=1;" vertex="1" parent="1">
                    <mxGeometry x="275" y="790" width="300" height="40" as="geometry"/>
                </mxCell>
                <mxCell id="21" value="ไม่ใช่" style="edgeStyle=orthogonalEdgeStyle;html=1;exitDx=0.5;exitDy=0.5;exitA=1;" edge="1" parent="1" source="17" target="15">
                    <mxGeometry relative="1" as="geometry">
                        <mxPoint x="485" y="710" as="sourcePoint"/>
                        <Array as="points">
                            <mxPoint x="640" y="710"/>
                            <mxPoint x="640" y="620"/>
                            <mxPoint x="575" y="620"/>
                        </Array>
                    </mxGeometry>
                </mxCell>
                <mxCell id="22" value="ตักราดข้าวสวยที่เตรียมไว้" style="rounded=0;whiteSpace=wrap;html=1;" vertex="1" parent="1">
                    <mxGeometry x="275" y="870" width="300" height="40" as="geometry"/>
                </mxCell>
                <mxCell id="23" value="" style="endArrow=classic;html=1;" edge="1" parent="1" source="20" target="22">
                    <mxGeometry width="50" height="50" relative="1" as="geometry">
                        <mxPoint x="425" y="830" as="sourcePoint"/>
                        <mxPoint x="425" y="860" as="targetPoint"/>
                    </mxGeometry>
                </mxCell>
                <mxCell id="24" value="Stop" style="ellipse;whiteSpace=wrap;html=1;" vertex="1" parent="1">
                    <mxGeometry x="350" y="950" width="150" height="50" as="geometry"/>
                </mxCell>
                <mxCell id="25" value="" style="endArrow=classic;html=1;" edge="1" parent="1" source="22" target="24">
                    <mxGeometry width="50" height="50" relative="1" as="geometry">
                        <mxPoint x="425" y="910" as="sourcePoint"/>
                        <mxPoint x="425" y="940" as="targetPoint"/>
                    </mxGeometry>
                </mxCell>
            </root>
        </mxGraphModel>
    </diagram>
</mxfile>